<svg width="32" height="25" viewBox="0 0 32 25" fill="none" xmlns="http://www.w3.org/2000/svg">
<path d="M27.0901 2.02337C25.0151 1.07111 22.8256 0.391472 20.5761 0.00138922C20.5557 -0.00204303 20.5348 0.000921288 20.5162 0.00987469C20.4976 0.0188281 20.4822 0.0333308 20.4721 0.0513886C20.1901 0.551383 19.8781 1.20538 19.6601 1.71737C17.2354 1.34939 14.769 1.34939 12.3442 1.71737C12.101 1.14702 11.8259 0.590809 11.5202 0.0513886C11.51 0.0335286 11.4945 0.0191929 11.476 0.0102683C11.4574 0.00134369 11.4366 -0.0017517 11.4162 0.00138922C9.16624 0.389385 6.97626 1.06938 4.90229 2.02337C4.88454 2.03014 4.86969 2.04287 4.86029 2.05937C0.71233 8.2573 -0.425658 14.3032 0.132336 20.2732C0.134336 20.3012 0.152336 20.3292 0.174336 20.3472C2.58976 22.1364 5.29146 23.5025 8.16425 24.3871C8.18453 24.3935 8.20633 24.3933 8.22647 24.3865C8.24661 24.3796 8.26405 24.3666 8.27625 24.3491C8.89224 23.5091 9.44024 22.6232 9.91223 21.6912C9.92207 21.672 9.92544 21.6501 9.92184 21.6288C9.91823 21.6076 9.90785 21.588 9.89223 21.5732C9.8819 21.5634 9.86964 21.5559 9.85623 21.5512C8.99456 21.22 8.16004 20.8221 7.36026 20.3612C7.33792 20.3485 7.32131 20.3277 7.31386 20.3032C7.30642 20.2786 7.30871 20.2521 7.32026 20.2292C7.32707 20.2143 7.33736 20.2013 7.35026 20.1912C7.51826 20.0652 7.68626 19.9332 7.84626 19.8012C7.86039 19.7898 7.87735 19.7825 7.89531 19.78C7.91328 19.7776 7.93158 19.78 7.94825 19.7872C13.1862 22.1792 18.8561 22.1792 24.0301 19.7872C24.0474 19.7797 24.0664 19.7771 24.085 19.7795C24.1037 19.782 24.1213 19.7895 24.1361 19.8012C24.2961 19.9332 24.4641 20.0652 24.6321 20.1912C24.6457 20.2011 24.6566 20.2143 24.6639 20.2295C24.6712 20.2447 24.6746 20.2615 24.6738 20.2783C24.673 20.2952 24.668 20.3116 24.6594 20.326C24.6507 20.3405 24.6386 20.3526 24.6241 20.3612C23.8261 20.8264 22.9905 21.2237 22.1261 21.5492C22.1123 21.5542 22.0998 21.5621 22.0894 21.5725C22.0791 21.5829 22.0711 21.5954 22.0661 21.6092C22.0615 21.6225 22.0596 21.6367 22.0607 21.6508C22.0617 21.6649 22.0656 21.6786 22.0721 21.6912C22.5521 22.6212 23.1021 23.5091 23.7061 24.3491C23.7183 24.3666 23.7357 24.3796 23.7559 24.3865C23.776 24.3933 23.7978 24.3935 23.8181 24.3871C26.6957 23.5052 29.4018 22.139 31.82 20.3472C31.8321 20.3388 31.8422 20.3278 31.8495 20.315C31.8567 20.3022 31.861 20.2879 31.862 20.2732C32.53 13.3712 30.744 7.37531 27.1301 2.06137C27.1264 2.05259 27.121 2.04467 27.1141 2.03813C27.1072 2.03158 27.099 2.02656 27.0901 2.02337ZM10.6942 16.6372C9.11624 16.6372 7.81826 15.1892 7.81826 13.4132C7.81826 11.6353 9.09224 10.1873 10.6942 10.1873C12.3082 10.1873 13.5942 11.6473 13.5702 13.4132C13.5702 15.1892 12.2962 16.6372 10.6942 16.6372ZM21.3261 16.6372C19.7501 16.6372 18.4501 15.1892 18.4501 13.4132C18.4501 11.6353 19.7241 10.1873 21.3261 10.1873C22.9401 10.1873 24.2281 11.6473 24.2021 13.4132C24.2021 15.1892 22.9401 16.6372 21.3261 16.6372Z" fill="white"/>
</svg>
