<svg width="32" height="27" viewBox="0 0 32 27" fill="none" xmlns="http://www.w3.org/2000/svg">
<path d="M10.052 26.0014C22.128 26.0014 28.734 15.9954 28.734 7.33339C28.734 7.05339 28.734 6.76939 28.722 6.48939C30.0081 5.55836 31.1181 4.40569 32 3.08539C30.7986 3.61509 29.5255 3.9642 28.222 4.12139C29.5951 3.30066 30.6234 2.00932 31.116 0.487386C29.826 1.25163 28.414 1.78813 26.942 2.07339C25.9524 1.01943 24.6428 0.321222 23.2162 0.0869012C21.7895 -0.147419 20.3254 0.0952292 19.0507 0.777261C17.7759 1.45929 16.7616 2.54264 16.1649 3.85951C15.5682 5.17637 15.4224 6.65325 15.75 8.06139C13.1395 7.93049 10.5856 7.25232 8.25409 6.07087C5.92254 4.88942 3.86537 3.23107 2.216 1.20339C1.37868 2.64955 1.12315 4.36019 1.50129 5.98792C1.87944 7.61565 2.86291 9.03845 4.252 9.96739C3.21108 9.93202 2.19304 9.65251 1.28 9.15139V9.24139C1.28179 10.7563 1.80661 12.2242 2.76575 13.3969C3.72488 14.5696 5.0595 15.3751 6.544 15.6774C5.98053 15.8326 5.39846 15.91 4.814 15.9074C4.40197 15.9086 3.99076 15.8705 3.586 15.7934C4.00557 17.0975 4.82255 18.2377 5.92249 19.0543C7.02244 19.871 8.35027 20.3231 9.72 20.3474C7.39311 22.175 4.5188 23.1662 1.56 23.1614C1.03864 23.1636 0.517646 23.1335 0 23.0714C3.00303 24.9859 6.4906 26.0025 10.052 26.0014Z" fill="white"/>
</svg>
